<?xml version="1.0" encoding="utf-8"?>
<!-- Generator: Adobe Illustrator 25.4.1, SVG Export Plug-In . SVG Version: 6.00 Build 0)  -->
<svg version="1.1" id="Capa_1" xmlns="http://www.w3.org/2000/svg" xmlns:xlink="http://www.w3.org/1999/xlink" x="0px" y="0px"
	 viewBox="0 0 763.49 216.95" style="enable-background:new 0 0 763.49 216.95;" xml:space="preserve">
<style type="text/css">
	.st0{fill:#323E48;}
	.st1{fill:#A25EB5;}
	.st2{opacity:0.69;clip-path:url(#SVGID_00000007398030049378946920000017449797670495091842_);}
	.st3{clip-path:url(#SVGID_00000130635698411457919500000011720776238797966520_);}
	.st4{filter:url(#Adobe_OpacityMaskFilter);}
	.st5{clip-path:url(#SVGID_00000157292810068447571920000006260386353075009463_);}
	.st6{clip-path:url(#SVGID_00000048475602120983996460000001387089879547758515_);}
	.st7{enable-background:new    ;}
	.st8{clip-path:url(#SVGID_00000086654879504641276380000004392351560099179150_);}
	.st9{clip-path:url(#SVGID_00000073681442078364240300000005025123343376082304_);}
	.st10{clip-path:url(#SVGID_00000012471617417754294160000013308087988909250208_);}
	
		.st11{clip-path:url(#SVGID_00000036969487835474527220000005300956521173441188_);fill:url(#SVGID_00000080897044925010072140000004124342029339857033_);}
	
		.st12{clip-path:url(#SVGID_00000157292810068447571920000006260386353075009463_);mask:url(#SVGID_00000034790267724966871680000008113329812193119935_);}
	.st13{clip-path:url(#SVGID_00000061431282950637043740000015712591560002035126_);}
	
		.st14{clip-path:url(#SVGID_00000018956444735239949510000017859965570486894014_);fill:url(#SVGID_00000111902730959089324650000017312263341400317358_);}
</style>
<path class="st0" d="M209.69,152.02c-8.78,0-15.75-2.04-20.73-6.05c-5.13-4.15-9.25-10.82-12.26-19.85L135.5,1.22h25.22
	l38.35,118.36c2.36,8.28,8.21,9.18,10.62,9.18c2.48,0,8.48-0.89,10.85-9.18L258.89,1.22h25.21l-41.42,124.91
	C237.53,143.6,226.75,152.02,209.69,152.02"/>
<path class="st0" d="M387.07,150.81L348.69,32.13c-1.63-5.58-5.59-8.86-10.82-8.86c-2.41,0-8.27,0.88-10.64,9.01l-38.34,118.53
	h-25.22l41.21-125.15c3-8.99,7.11-15.63,12.22-19.7C322.08,2.01,329.07,0,337.86,0c17.21,0,27.98,8.34,32.94,25.48l41.48,125.32
	h-25.21V150.81z"/>
<polygon class="st0" points="443.46,150.81 443.46,26.23 395.57,26.23 395.57,3.19 514.83,3.19 514.83,26.23 467.18,26.23 
	467.18,150.81 "/>
<path class="st0" d="M575.2,150.81c-8.42,0-15.59-0.85-21.31-2.53c-5.37-1.57-9.78-4.05-13.1-7.37c-3.32-3.32-5.8-7.76-7.38-13.2
	c-1.68-5.8-2.53-13.01-2.53-21.44V47.49c0-8.41,0.85-15.58,2.53-21.31c1.57-5.37,4.05-9.78,7.37-13.1s7.73-5.8,13.1-7.37
	c5.72-1.67,12.89-2.53,21.31-2.53h72.9v23.04H577.7c-8.43,0-14.26,1.79-17.83,5.46c-3.54,3.64-5.26,9.48-5.26,17.85v14.92h93.5
	v23.27h-93.5v16.74c0,8.4,1.74,14.23,5.31,17.79c3.56,3.56,9.38,5.3,17.78,5.3h70.41v23.27L575.2,150.81L575.2,150.81z"/>
<path class="st0" d="M715.98,150.81c-8.42,0-15.63-0.85-21.44-2.53c-5.44-1.57-9.88-4.05-13.2-7.37s-5.8-7.76-7.37-13.2
	c-1.68-5.8-2.53-13.01-2.53-21.44V3.19h23.72v101.27c0,8.43,1.79,14.26,5.47,17.84c3.63,3.53,9.47,5.25,17.85,5.25h46.12v23.27
	L715.98,150.81L715.98,150.81z"/>
<polygon class="st1" points="487.65,180.62 500.95,180.62 500.95,216.95 507.99,216.95 507.99,180.62 521.29,180.62 521.29,173.97 
	487.65,173.97 "/>
<polygon class="st1" points="534.51,198.11 555.72,198.11 555.72,191.46 534.51,191.46 534.51,180.62 557.07,180.62 557.07,173.97 
	527.47,173.97 527.47,216.95 558.06,216.95 558.06,210.29 534.51,210.29 "/>
<polygon class="st1" points="571.45,173.97 564.41,173.97 564.41,216.95 591.67,216.95 591.67,210.29 571.45,210.29 "/>
<polygon class="st1" points="604.17,198.11 625.39,198.11 625.39,191.46 604.17,191.46 604.17,180.62 626.73,180.62 626.73,173.97 
	597.14,173.97 597.14,216.95 627.73,216.95 627.73,210.29 604.17,210.29 "/>
<path class="st1" d="M644.13,183.89L644.13,183.89c1.08-1.4,2.39-2.53,3.88-3.34c1.45-0.79,3.09-1.2,4.86-1.2
	c2.92,0,5.28,0.65,7.05,1.93c1.79,1.3,3.18,3.35,4.15,6.09l0.32,0.92h7.34l-0.49-1.75c-0.55-1.95-1.35-3.79-2.35-5.43
	c-1.02-1.67-2.31-3.15-3.81-4.37c-1.53-1.24-3.33-2.2-5.34-2.88c-2.01-0.67-4.32-1.01-6.85-1.01c-3.04,0-5.81,0.63-8.23,1.89
	c-2.38,1.25-4.43,2.92-6.07,4.98c-1.64,2.05-2.9,4.42-3.75,7.05c-0.84,2.6-1.27,5.34-1.27,8.12c0,3.56,0.45,6.79,1.33,9.59
	c0.9,2.85,2.21,5.32,3.88,7.33c1.68,2.04,3.76,3.61,6.17,4.69c2.39,1.07,5.08,1.61,8.01,1.61c2.53,0,4.87-0.43,6.93-1.28
	c2.05-0.83,3.87-2,5.41-3.46c1.52-1.44,2.79-3.17,3.77-5.11c0.97-1.92,1.67-4,2.1-6.19l0.32-1.63h-7.16l-0.23,1.1
	c-0.25,1.27-0.69,2.53-1.31,3.75c-0.6,1.2-1.38,2.28-2.33,3.21c-0.93,0.93-2.04,1.68-3.31,2.24c-2.54,1.15-5.85,1.1-8.64-0.12
	c-1.44-0.64-2.75-1.64-3.92-2.97c-1.17-1.35-2.14-3.09-2.87-5.17c-0.74-2.1-1.12-4.64-1.12-7.54c0-2.11,0.32-4.15,0.95-6.04
	C642.15,186.99,643.03,185.31,644.13,183.89"/>
<path class="st1" d="M711.77,179.45c-1.66-1.99-3.72-3.59-6.14-4.71c-2.41-1.12-5.19-1.69-8.25-1.69c-3.08,0-5.86,0.57-8.27,1.69
	c-2.4,1.12-4.47,2.7-6.14,4.71c-1.65,1.99-2.91,4.39-3.75,7.14c-0.83,2.71-1.25,5.7-1.25,8.89c0,3.22,0.42,6.23,1.25,8.94
	c0.85,2.76,2.1,5.16,3.75,7.16c1.66,2.02,3.73,3.62,6.14,4.74c2.41,1.12,5.19,1.68,8.27,1.68c3.07,0,5.85-0.56,8.25-1.68
	c2.41-1.12,4.47-2.72,6.14-4.74c1.65-2,2.91-4.4,3.76-7.15c0.84-2.71,1.27-5.71,1.27-8.94c0-3.19-0.43-6.19-1.27-8.9
	C714.68,183.84,713.41,181.43,711.77,179.45 M709.76,195.49c0,2.57-0.33,4.88-1,6.88c-0.65,1.98-1.55,3.66-2.67,5.01
	c-1.11,1.33-2.42,2.35-3.91,3.04c-2.97,1.38-6.68,1.38-9.66,0c-1.48-0.69-2.79-1.71-3.88-3.04c-1.11-1.34-2-3.03-2.64-5.01
	c-0.65-2.01-0.98-4.33-0.98-6.89c0-2.55,0.34-4.86,0.98-6.86c0.64-1.97,1.53-3.65,2.64-4.99c1.09-1.33,2.4-2.35,3.88-3.03
	c1.5-0.69,3.13-1.05,4.86-1.05c1.69,0,3.31,0.35,4.8,1.05c1.48,0.69,2.8,1.71,3.91,3.03c1.12,1.35,2.03,3.03,2.68,5.01
	C709.43,190.63,709.76,192.94,709.76,195.49"/>
<polygon class="st1" points="755.6,173.97 743.55,205.74 731.72,173.97 723.86,173.97 723.86,216.95 730.9,216.95 730.9,190.2 
	740.71,216.51 740.88,216.95 746.7,216.95 756.46,190.33 756.46,216.95 763.49,216.95 763.49,173.97 "/>
<path class="st1" d="M123.4,150.81L85.02,32.13c-1.63-5.58-5.59-8.86-10.82-8.86c-2.41,0-8.28,0.87-10.64,9L25.22,150.81H0
	L41.21,25.66c3-9,7.11-15.63,12.23-19.69c4.98-3.96,11.97-5.96,20.76-5.96c17.2,0,27.97,8.33,32.93,25.48l41.49,125.32H123.4z"/>
<g>
	<g>
		<defs>
			<path id="SVGID_1_" d="M53.44,5.97c-5.11,4.07-9.23,10.7-12.22,19.69L0,150.81h25.22L63.56,32.28c2.36-8.13,8.23-9,10.63-9
				c5.23,0,9.2,3.28,10.82,8.86l38.38,118.68h25.22L107.12,25.5C102.16,8.36,91.39,0.02,74.19,0.02C65.4,0.01,58.42,2.02,53.44,5.97
				"/>
		</defs>
		<clipPath id="SVGID_00000032638532524679517130000007957410530813163425_">
			<use xlink:href="#SVGID_1_"  style="overflow:visible;"/>
		</clipPath>
		<g style="opacity:0.69;clip-path:url(#SVGID_00000032638532524679517130000007957410530813163425_);">
			<g>
				<g>
					<defs>
						<rect id="SVGID_00000117654779034326549670000018196862891993474233_" x="49.64" y="-8.64" width="86.21" height="111.29"/>
					</defs>
					<clipPath id="SVGID_00000112594912017427370410000009627293082384348584_">
						<use xlink:href="#SVGID_00000117654779034326549670000018196862891993474233_"  style="overflow:visible;"/>
					</clipPath>
					<g style="clip-path:url(#SVGID_00000112594912017427370410000009627293082384348584_);">
						<g>
							<defs>
								<path id="SVGID_00000034800705766646229050000004393750620203519667_" d="M62.29,36.3l1.59-4.91
									c1.19-3.69,3.44-3.16,4.59-3.32c0.1-0.01,0.2,0.01,0.3,0.01c0.1,0,0.2-0.03,0.29-0.01c1.15,0.16,3.41-0.37,4.6,3.32
									l20.13,62.36c11.81,0.26,22.64-7.6,29.4-19.89l-13.71-42.47l-8.49-22.98c0,0-2.05-4.49-8.72-8.4
									C78.01,2.73,66,17.22,62.29,36.3"/>
							</defs>
							<clipPath id="SVGID_00000007417864698495036050000001905244505185261451_">
								<use xlink:href="#SVGID_00000034800705766646229050000004393750620203519667_"  style="overflow:visible;"/>
							</clipPath>
							<defs>
								<filter id="Adobe_OpacityMaskFilter" filterUnits="userSpaceOnUse" x="49.64" y="-8.64" width="86.21" height="111.29">
									<feColorMatrix  type="matrix" values="1 0 0 0 0  0 1 0 0 0  0 0 1 0 0  0 0 0 1 0"/>
								</filter>
							</defs>
							
								<mask maskUnits="userSpaceOnUse" x="49.64" y="-8.64" width="86.21" height="111.29" id="SVGID_00000034790267724966871680000008113329812193119935_">
								<g class="st4">
									<g>
										<defs>
											<path id="SVGID_00000010310643931168621980000011522517939581749401_" d="M62.29,36.3l1.59-4.91
												c1.19-3.69,3.44-3.16,4.59-3.32c0.1-0.01,0.2,0.01,0.3,0.01c0.1,0,0.2-0.03,0.29-0.01c1.15,0.16,3.41-0.37,4.6,3.32
												l20.13,62.36c11.81,0.26,22.64-7.6,29.4-19.89l-13.71-42.47l-8.49-22.98c0,0-2.05-4.49-8.72-8.4
												C78.01,2.73,66,17.22,62.29,36.3"/>
										</defs>
										
											<clipPath id="SVGID_00000058584404897797777020000002429417580712995007_" style="clip-path:url(#SVGID_00000007417864698495036050000001905244505185261451_);">
											<use xlink:href="#SVGID_00000010310643931168621980000011522517939581749401_"  style="overflow:visible;"/>
										</clipPath>
										
											<rect x="49.64" y="-8.64" style="clip-path:url(#SVGID_00000058584404897797777020000002429417580712995007_);" width="86.21" height="111.29"/>
									</g>
									<g class="st7">
										<g>
											<defs>
												<path id="SVGID_00000116921425214984514870000016877630473192552121_" d="M62.29,36.3l1.59-4.91
													c1.19-3.69,3.44-3.16,4.59-3.32c0.1-0.01,0.2,0.01,0.3,0.01c0.1,0,0.2-0.03,0.29-0.01c1.15,0.16,3.41-0.37,4.6,3.32
													l20.13,62.36c11.81,0.26,22.64-7.6,29.4-19.89l-13.71-42.47l-8.49-22.98c0,0-2.05-4.49-8.72-8.4
													C78.01,2.73,66,17.22,62.29,36.3"/>
											</defs>
											
												<clipPath id="SVGID_00000021817435333957613070000008235999849147803579_" style="clip-path:url(#SVGID_00000007417864698495036050000001905244505185261451_);">
												<use xlink:href="#SVGID_00000116921425214984514870000016877630473192552121_"  style="overflow:visible;"/>
											</clipPath>
											
												<rect x="49.64" y="-8.64" style="clip-path:url(#SVGID_00000021817435333957613070000008235999849147803579_);" width="86.21" height="111.29"/>
										</g>
										<g>
											<defs>
												<path id="SVGID_00000100376295800767166410000007505977480744321471_" d="M62.29,36.3l1.59-4.91
													c1.19-3.69,3.44-3.16,4.59-3.32c0.1-0.01,0.2,0.01,0.3,0.01c0.1,0,0.2-0.03,0.29-0.01c1.15,0.16,3.41-0.37,4.6,3.32
													l20.13,62.36c11.81,0.26,22.64-7.6,29.4-19.89l-13.71-42.47l-8.49-22.98c0,0-2.05-4.49-8.72-8.4
													C78.01,2.73,66,17.22,62.29,36.3"/>
											</defs>
											
												<clipPath id="SVGID_00000174600723088933893400000005940498910603471287_" style="clip-path:url(#SVGID_00000007417864698495036050000001905244505185261451_);">
												<use xlink:href="#SVGID_00000100376295800767166410000007505977480744321471_"  style="overflow:visible;"/>
											</clipPath>
											
												<rect x="56.22" y="-3.92" style="clip-path:url(#SVGID_00000174600723088933893400000005940498910603471287_);" width="73.05" height="101.86"/>
										</g>
										<g>
											<g>
												<defs>
													<path id="SVGID_00000133530921637989514930000014670972658590150590_" d="M62.29,36.3l1.59-4.91
														c1.19-3.69,3.44-3.16,4.59-3.32c0.1-0.01,0.2,0.01,0.3,0.01c0.1,0,0.2-0.03,0.29-0.01c1.15,0.16,3.41-0.37,4.6,3.32
														l20.13,62.36c11.81,0.26,22.64-7.6,29.4-19.89l-13.71-42.47l-8.49-22.98c0,0-2.05-4.49-8.72-8.4
														C78.01,2.73,66,17.22,62.29,36.3"/>
												</defs>
												
													<clipPath id="SVGID_00000154407561713237021280000011249350905020270995_" style="clip-path:url(#SVGID_00000007417864698495036050000001905244505185261451_);">
													<use xlink:href="#SVGID_00000133530921637989514930000014670972658590150590_"  style="overflow:visible;"/>
												</clipPath>
											</g>
											<g>
												<defs>
													<path id="SVGID_00000096056668298236530360000014042906059070791355_" d="M62.29,36.3l1.59-4.91
														c1.19-3.69,3.44-3.16,4.59-3.32c0.1-0.01,0.2,0.01,0.3,0.01c0.1,0,0.2-0.03,0.29-0.01c1.15,0.16,3.41-0.37,4.6,3.32
														l20.13,62.36c11.81,0.26,22.64-7.6,29.4-19.89l-13.71-42.47l-8.49-22.98c0,0-2.05-4.49-8.72-8.4
														C78.01,2.73,66,17.22,62.29,36.3"/>
												</defs>
												<defs>
													
														<rect id="SVGID_00000039096974575491025310000004510684470677425318_" x="43.88" y="13.58" transform="matrix(0.0647 -0.9979 0.9979 0.0647 39.8332 136.5226)" width="97.74" height="66.87"/>
												</defs>
												
													<clipPath id="SVGID_00000121262736576960398110000017382177814558937218_" style="clip-path:url(#SVGID_00000007417864698495036050000001905244505185261451_);">
													<use xlink:href="#SVGID_00000096056668298236530360000014042906059070791355_"  style="overflow:visible;"/>
												</clipPath>
												
													<clipPath id="SVGID_00000012473193647899409360000012167800597825975453_" style="clip-path:url(#SVGID_00000121262736576960398110000017382177814558937218_);">
													<use xlink:href="#SVGID_00000039096974575491025310000004510684470677425318_"  style="overflow:visible;"/>
												</clipPath>
												
													<linearGradient id="SVGID_00000104703504214562368000000008002543807352880284_" gradientUnits="userSpaceOnUse" x1="-350.7899" y1="-103.8407" x2="-350.0757" y2="-103.8407" gradientTransform="matrix(-8.5472 131.7752 117.7866 7.636 9328.6094 47017.7344)">
													<stop  offset="0" style="stop-color:#FFFFFF"/>
													<stop  offset="0.6643" style="stop-color:#000000"/>
													<stop  offset="1" style="stop-color:#000000"/>
												</linearGradient>
												
													<polygon style="clip-path:url(#SVGID_00000012473193647899409360000012167800597825975453_);fill:url(#SVGID_00000104703504214562368000000008002543807352880284_);" points="
													56.53,-8.64 49.64,97.51 128.97,102.65 135.86,-3.5 												"/>
											</g>
										</g>
									</g>
								</g>
							</mask>
							
								<g style="clip-path:url(#SVGID_00000007417864698495036050000001905244505185261451_);mask:url(#SVGID_00000034790267724966871680000008113329812193119935_);">
								<g>
									<g>
										<defs>
											
												<rect id="SVGID_00000121271397538161271290000012408809203864834983_" x="49.64" y="-8.64" width="86.21" height="111.29"/>
										</defs>
										<clipPath id="SVGID_00000150812362145895622740000004179135324111948182_">
											<use xlink:href="#SVGID_00000121271397538161271290000012408809203864834983_"  style="overflow:visible;"/>
										</clipPath>
										<g style="clip-path:url(#SVGID_00000150812362145895622740000004179135324111948182_);">
											<g>
												<defs>
													<polygon id="SVGID_00000106110281243008087070000009249641145726874290_" points="56.22,93.61 122.95,97.94 
														129.27,0.42 129.27,0.41 62.55,-3.92 													"/>
												</defs>
												<clipPath id="SVGID_00000163051687282992042720000014779764800657568640_">
													<use xlink:href="#SVGID_00000106110281243008087070000009249641145726874290_"  style="overflow:visible;"/>
												</clipPath>
												
													<linearGradient id="SVGID_00000108309424532789178920000015620108865226171048_" gradientUnits="userSpaceOnUse" x1="-350.7899" y1="-103.8407" x2="-350.0757" y2="-103.8407" gradientTransform="matrix(-8.5472 131.7752 117.7866 7.636 9328.6094 47017.7344)">
													<stop  offset="0" style="stop-color:#020303"/>
													<stop  offset="0.6643" style="stop-color:#020303"/>
													<stop  offset="1" style="stop-color:#020303"/>
												</linearGradient>
												
													<polygon style="clip-path:url(#SVGID_00000163051687282992042720000014779764800657568640_);fill:url(#SVGID_00000108309424532789178920000015620108865226171048_);" points="
													56.53,-8.64 49.64,97.51 128.97,102.65 135.85,-3.5 												"/>
											</g>
										</g>
									</g>
								</g>
							</g>
						</g>
					</g>
				</g>
			</g>
		</g>
	</g>
</g>
</svg>
